<svg width="272" height="67" viewBox="0 0 272 67" fill="none" xmlns="http://www.w3.org/2000/svg">
<path d="M16.8376 43.3229H16.8254C12.3632 43.3229 7.73949 43.2193 4.70267 41.9203C3.12634 41.2533 2.03449 40.3563 1.26388 39.1029C0.414271 37.7232 0 35.9292 0 33.6402C0 31.8918 0.252775 29.845 0.735506 27.5332C0.851361 27.0031 3.48444 14.6978 3.65646 14.0431C4.35862 11.4785 5.2328 9.36146 6.34747 7.59028C8.26786 4.54293 10.8325 2.57515 14.4099 1.40255C17.3888 0.437091 21.184 0 26.6941 0H26.7398C29.6379 0 32.0182 0.207135 34.0193 0.621406C36.3768 1.11642 38.1831 1.93268 39.3785 3.02453C40.2755 3.85307 40.8513 4.85364 41.0918 6.01394C41.2182 6.60024 41.2761 7.25676 41.2761 7.95715C41.2761 9.58966 40.9426 11.3047 40.6775 12.6721C40.6424 12.8792 40.5968 13.0636 40.5617 13.2584L40.5494 13.3163H29.8766L29.8889 13.2356C29.8889 13.2356 29.924 12.9144 29.9346 12.7634C29.9346 12.7511 29.9802 12.3263 29.9802 11.7049C29.9802 10.7728 29.5431 10.0496 28.6584 9.48609C27.9562 9.08411 27.0487 8.94544 26.1851 8.84187C25.2652 8.72601 24.2296 8.71548 23.2518 8.71548C21.4578 8.71548 20.1009 8.85416 18.9845 9.16486C18.0998 9.4071 17.352 9.76344 16.7306 10.2339C15.8458 10.9009 15.1542 11.8664 14.6259 13.1777C14.1308 14.3959 13.7745 15.8581 13.383 17.6627L11.9454 24.5631C11.4732 26.7819 11.1397 28.4618 11.1397 29.9117C11.1397 30.7508 11.2555 31.4073 11.496 31.9936C11.8752 32.9257 12.6809 33.6489 13.7727 34.0404C14.8189 34.4196 16.153 34.5916 18.0857 34.5916C19.3742 34.5916 20.4327 34.5688 21.3981 34.4529C23.0657 34.2581 24.2612 33.7508 25.1582 32.8766C26.1359 31.9339 26.7907 30.5296 27.2278 28.4723L27.377 27.7702H37.9338V27.8386C37.9338 27.9194 37.3353 30.6911 37.0246 31.8058C36.7033 32.9679 36.3575 33.9456 35.9555 34.8198C34.9321 37.0509 33.505 38.7764 31.4582 40.2369C29.4799 41.6166 27.3752 42.468 24.8334 42.9174C22.648 43.2965 20.4063 43.3316 17.9207 43.3316C17.9295 43.3352 16.964 43.3229 16.8376 43.3229Z" fill="white"/>
<path d="M135.1 43.3229C130.625 43.3229 126.003 43.2193 122.966 41.9203C121.39 41.2533 120.298 40.3563 119.528 39.1029C118.676 37.7232 118.262 35.9292 118.262 33.6402C118.262 31.8918 118.515 29.845 118.997 27.5332C119.113 27.0048 121.746 14.6978 121.918 14.0431C122.608 11.4785 123.495 9.36146 124.609 7.59028C126.53 4.54293 129.094 2.57515 132.672 1.40255C135.653 0.437091 139.448 0 144.956 0H145.002C147.9 0 150.28 0.207135 152.281 0.621406C154.639 1.11642 156.445 1.93268 157.64 3.02453C158.537 3.85307 159.113 4.85364 159.354 6.01394C159.48 6.60024 159.538 7.25676 159.538 7.95715C159.538 9.58966 159.205 11.3047 158.939 12.6844C158.904 12.8793 158.859 13.0759 158.824 13.2707L158.811 13.3286H148.139L148.151 13.2479C148.151 13.2479 148.186 12.9266 148.197 12.7757C148.197 12.7634 148.242 12.3386 148.242 11.7172C148.242 10.7851 147.805 10.0619 146.92 9.49838C146.218 9.0964 145.311 8.95772 144.447 8.85416C143.527 8.7383 142.492 8.72777 141.514 8.72777C139.72 8.72777 138.363 8.86644 137.246 9.17715C136.362 9.41939 135.624 9.77573 134.993 10.2462C134.108 10.9132 133.416 11.8787 132.888 13.19C132.393 14.4082 132.036 15.8704 131.645 17.675L130.185 24.5526C129.712 26.7714 129.379 28.4513 129.379 29.9012C129.379 30.7403 129.495 31.3968 129.735 31.9831C130.114 32.9152 130.92 33.6384 132.012 34.0299C133.058 34.409 134.392 34.5811 136.325 34.5811C137.613 34.5811 138.672 34.5582 139.637 34.4424C141.305 34.2475 142.5 33.7402 143.397 32.866C144.375 31.9234 145.03 30.5191 145.467 28.4618L145.616 27.7596H156.173V27.8281C156.173 27.9088 155.574 30.6806 155.264 31.7953C154.942 32.9573 154.597 33.9351 154.195 34.8093C153.171 37.0526 151.744 38.7659 149.697 40.2264C147.719 41.6061 145.614 42.4575 143.073 42.9068C140.896 43.2895 135.226 43.3229 135.1 43.3229Z" fill="white"/>
<path d="M112.19 42.9788H81.4832L81.506 42.8981L90.0968 2.48387C90.246 1.73608 90.5216 1.23053 90.971 0.884717C91.4309 0.528374 92.0629 0.356346 92.9037 0.356346H118.815C119.459 0.356346 119.919 0.505554 120.195 0.781149C120.402 0.998817 120.516 1.30952 120.516 1.69044V1.72555C120.516 1.88704 120.493 2.03625 120.458 2.19774L119.124 8.49957H99.0686L97.3325 16.8605H116.159L114.446 24.7386H95.6175L93.4777 34.8251H113.949L112.19 42.9788Z" fill="white"/>
<path d="M167.256 42.9788H157.021L157.044 42.8981L165.599 2.63307C165.807 1.75889 166.128 1.16031 166.612 0.793432C166.991 0.505549 167.474 0.368629 168.096 0.368629H174.157C174.812 0.368629 175.296 0.517837 175.607 0.818008C175.849 1.04796 175.975 1.39377 175.975 1.79576C175.975 1.92214 175.963 2.04853 175.94 2.17492L167.256 42.9788Z" fill="white"/>
<path d="M195.444 42.9788H182.541L182.518 42.9332L172.961 20.8294L172.997 20.7943L189.524 2.8525C190.547 1.73608 191.145 1.1726 191.686 0.839077C192.262 0.482734 192.767 0.356346 193.596 0.356346H201.922C202.313 0.356346 202.554 0.482734 202.692 0.598589C202.773 0.667049 202.831 0.737264 202.864 0.805724C202.887 0.851364 202.91 0.909292 202.91 0.977752H202.922L202.91 1.11643C202.898 1.28845 202.807 1.57634 202.461 1.9555L184.622 21.1278L195.444 42.9788Z" fill="white"/>
<path d="M65.9919 42.9788H65.9111L65.934 42.8981L69.5676 25.6813H52.6966L49.0156 42.9788H38.7799L38.8027 42.8981C39.1486 41.2656 47.2795 2.87532 47.3357 2.65765C47.6341 1.39202 48.1414 0.954932 48.5434 0.724977C48.9805 0.472201 49.5896 0.356346 50.4532 0.356346H55.9844C56.2723 0.356346 56.7428 0.482734 57.1009 0.735509C57.2957 0.874184 57.4467 1.03392 57.538 1.20771C57.6538 1.41484 57.71 1.6448 57.71 1.90986C57.71 2.02572 57.6977 2.1521 57.6749 2.27849C57.6292 2.52073 54.8224 15.6422 54.5468 16.9412H71.4301C72.7993 10.4656 74.4441 2.74893 74.4669 2.65765C74.7653 1.39202 75.2726 0.954932 75.6746 0.724977C76.1117 0.472201 76.7208 0.356346 77.5844 0.356346H83.1156C83.4035 0.356346 83.874 0.482734 84.2321 0.735509C84.4269 0.874184 84.5779 1.03392 84.6692 1.20771C84.785 1.41484 84.8412 1.6448 84.8412 1.90986C84.8412 2.02572 84.8289 2.1521 84.8061 2.27849C84.7604 2.53127 76.5136 41.2656 76.1573 42.9226L76.145 42.9806L65.9919 42.9788Z" fill="white"/>
<path d="M225.633 8.68389C226.427 8.89103 227.048 9.28248 227.382 9.93723C227.6 10.3743 227.703 10.8799 227.703 11.489C227.703 12.1104 227.6 12.8354 227.428 13.685C227.185 14.8014 226.955 15.7212 226.599 16.5147C226.243 17.3081 225.76 17.9646 225.058 18.5158C223.655 19.6199 221.47 20.287 217.594 21.1612C212.465 22.3004 208.935 23.243 206.438 24.4841C203.942 25.7269 202.494 27.2102 201.4 29.5554C200.675 31.1194 200.124 33.0749 199.594 35.5465L198.144 42.9069H231.347L232.899 35.4535H209.795C209.795 35.4535 210.151 33.6595 210.449 33.003C210.829 32.1516 211.324 31.5197 211.968 31.0475C212.612 30.5753 213.393 30.2646 214.338 30.0013C216.235 29.4729 218.858 29.1166 222.711 28.1388C227.461 26.9083 230.67 25.5619 232.934 23.3887C235.2 21.2156 236.58 18.1559 237.591 13.3602C237.97 11.5891 238.177 9.84069 238.177 8.51888C238.177 6.62131 237.809 5.16084 237.154 4.04441C236.499 2.92799 235.555 2.12402 234.314 1.52544C231.853 0.340552 228.23 0.0649567 223.94 0.0649567C218.477 0.0649567 214.176 0.628435 210.978 2.59446C207.781 4.54996 205.561 8.11515 204.32 13.922L203.974 15.5668H214.071L214.462 13.7499C214.854 12.0139 215.221 10.829 215.877 9.9899C216.532 9.13853 217.487 8.73655 218.775 8.57506C219.649 8.4592 220.696 8.43638 221.995 8.43638C222.202 8.43638 222.397 8.43638 222.593 8.43638C223.852 8.41883 224.84 8.47676 225.633 8.68389Z" fill="white"/>
<path d="M253.49 4.57804C252.317 5.79628 242.461 16.1021 238.423 20.3344C237.618 21.1963 236.756 22.1512 236.376 22.9446C236.066 23.5204 235.664 25.1178 235.457 26.257C235.032 28.6373 234.709 30.8105 234.514 31.697C234.468 31.9269 234.446 32.1341 234.446 32.3289C234.446 33.0644 234.756 33.5471 235.171 33.9052C235.573 34.251 236.125 34.4108 236.666 34.4108C237.161 34.4108 256.228 34.4108 256.228 34.4108L254.422 42.9104L264.715 41.9326L266.315 34.4003H269.996L271.595 26.8679H267.914C267.914 26.8679 271.595 9.68621 271.709 9.04198C272.974 2.08364 270.087 0.0491486 263.578 0.0491486C261.919 0.0807455 258.159 -0.265065 253.49 4.57804ZM257.813 26.889H243.035L260.62 8.67159H261.689L257.813 26.889Z" fill="white"/>
<path d="M230.441 66.7046C223.794 66.7046 217.411 64.9334 211.982 61.5754C206.646 58.2858 203.54 54.3993 202.067 52.2016L200.124 57.2045C199.952 57.6644 199.47 57.9522 198.952 57.8715C198.446 57.7802 198.067 57.3431 198.067 56.8358L197.963 47.025V47.0127C197.963 46.7371 198.079 46.472 198.274 46.2877C198.481 46.0929 198.746 45.977 199.032 45.977H209.015H209.028C209.523 45.9893 209.947 46.3562 210.04 46.8389C210.053 46.9074 210.063 46.9653 210.063 47.0338C210.063 47.4708 209.788 47.8623 209.384 48.022L204.52 49.9073C208.787 53.7147 217.585 59.8323 229.936 59.8323C230.994 59.8323 232.063 59.7866 233.122 59.6936C238.332 59.2565 243.588 57.968 248.325 55.9897C252.477 54.2536 256.135 52.0454 258.93 49.5843L253.904 48.101C253.455 47.9746 253.133 47.5604 253.133 47.0882C253.133 47.0531 253.133 47.0197 253.133 46.9846C253.179 46.4791 253.593 46.0753 254.099 46.0297L263.839 45.145C263.885 45.145 263.92 45.1327 263.943 45.1327C264.196 45.1327 264.438 45.224 264.622 45.3749C264.84 45.5592 264.979 45.8243 265.001 46.0999C265.807 55.6808 265.807 55.6808 265.807 55.7141C265.807 56.1863 265.486 56.6111 265.024 56.7375C264.933 56.7603 264.84 56.7726 264.749 56.7726C264.334 56.7726 263.966 56.5427 263.783 56.1863L261.426 51.6785C259.54 54.2308 256.251 57.8311 251.099 60.9592C245.878 64.133 240.047 66.02 233.768 66.5484L233.136 66.6063C232.248 66.6695 231.338 66.7046 230.441 66.7046Z" fill="white"/>
</svg>
